<?xml version="1.0" encoding="utf-8"?>
<!-- Generator: Adobe Illustrator 16.0.0, SVG Export Plug-In . SVG Version: 6.00 Build 0)  -->
<!DOCTYPE svg PUBLIC "-//W3C//DTD SVG 1.1//EN" "http://www.w3.org/Graphics/SVG/1.1/DTD/svg11.dtd">
<svg version="1.1" id="Layer_1" xmlns="http://www.w3.org/2000/svg" xmlns:xlink="http://www.w3.org/1999/xlink" x="0px" y="0px"
	 width="566.93px" height="850.39px" viewBox="0 0 566.93 850.39" enable-background="new 0 0 566.93 850.39" xml:space="preserve">
<g>
	<defs>
		<rect id="SVGID_1_" x="-500.684" y="8.515" width="1498" height="842.624"/>
	</defs>
	<clipPath id="SVGID_2_">
		<use xlink:href="#SVGID_1_"  overflow="visible"/>
	</clipPath>
	
		<rect x="-863.774" y="-258.541" clip-path="url(#SVGID_2_)" fill="none" stroke="#010101" stroke-miterlimit="10" width="1963.005" height="1195.279"/>
</g>
<polygon fill="#5F0E0F" points="178.084,150.713 163.058,117.655 170.571,93.612 "/>
<polygon fill="#431715" points="163.057,117.655 160.553,87.101 170.571,93.613 "/>
<polygon fill="#55212C" points="163.057,117.655 163.057,130.178 150.536,95.615 160.553,87.101 "/>
<polygon fill="#3B151C" points="150.536,95.616 154.542,75.081 160.553,87.101 "/>
<polygon fill="#482739" points="154.543,75.08 188.603,54.543 160.553,87.101 "/>
<polygon fill="#38152B" points="188.603,54.543 170.571,93.612 160.553,87.101 "/>
<polygon fill="#1E1016" points="188.603,54.543 146.528,68.568 146.528,85.348 154.542,75.08 "/>
<polygon fill="#5F0E0F" points="188.603,54.543 165.561,62.224 183.092,40.018 "/>
<polygon fill="#381E1D" points="188.603,54.543 204.131,51.121 183.092,40.018 "/>
<polygon fill="#270F15" points="183.092,40.018 163.057,35.009 177.083,27.996 "/>
<polygon fill="#54183E" points="177.083,27.997 183.093,40.018 204.13,51.121 "/>
<polygon fill="#563428" points="177.083,27.997 211.142,47.281 211.142,34.007 "/>
<polygon fill="#35171D" points="211.143,47.281 204.13,51.121 177.083,27.997 "/>
<polygon fill="#351717" points="170.571,93.612 188.603,106.635 175.904,134.141 "/>
<polygon fill="#7C1517" points="175.904,134.142 183.092,150.713 188.603,106.636 "/>
<polygon fill="#3F1312" points="183.725,145.658 189.354,141.697 188.603,106.635 "/>
<polygon fill="#2B1211" points="188.603,106.636 190.606,74.078 170.571,93.613 "/>
<polygon fill="#482739" points="190.606,74.078 188.603,54.543 170.571,93.613 "/>
<polygon fill="#2A1111" points="190.606,74.078 204.131,79.588 188.603,106.636 "/>
<polygon fill="#2A1520" points="190.204,25.242 238.092,21.987 211.092,34.008 "/>
<polygon fill="#2A1210" points="237.689,21.986 228.172,65.354 211.143,34.007 "/>
<polygon fill="#42201A" points="204.131,51.121 211.143,47.281 211.143,34.007 228.172,65.354 "/>
<polygon fill="#69464A" points="204.131,79.588 188.603,54.543 190.606,74.078 "/>
<polygon fill="#381E1D" points="204.131,51.121 204.131,79.588 188.603,54.544 "/>
<polygon fill="#351913" points="204.131,79.588 228.172,65.354 204.131,51.121 "/>
<polygon fill="#3F1E16" points="228.172,65.354 262.568,47.281 237.688,21.986 "/>
<polygon fill="#4D2C1A" points="237.689,21.986 267.742,16.477 262.568,47.281 "/>
<polygon fill="#512F1C" points="228.172,65.354 247.707,70.822 262.568,47.281 "/>
<polygon fill="#A66B59" points="228.172,65.354 239.692,85.348 247.707,70.822 "/>
<polygon fill="none" stroke="#EE3F25" stroke-width="0.428" stroke-miterlimit="10" points="239.692,85.348 239.692,102.379 
	245.37,93.613 "/>
<polygon fill="none" stroke="#EE3F25" stroke-width="0.428" stroke-miterlimit="10" points="239.692,102.378 247.707,120.16 
	243.7,106.636 "/>
<polygon fill="#AC846C" points="243.7,106.636 245.37,93.613 239.692,102.378 "/>
<polygon fill="#8E6854" points="245.37,93.612 247.707,105.091 254.043,117.654 249.707,105.634 249.707,97.076 "/>
<polygon fill="#A27569" points="245.37,93.612 247.707,70.823 239.692,85.348 "/>
<polygon fill="#82604D" points="249.153,94.771 271.188,115.443 285.768,104.403 "/>
<polygon fill="#45281C" points="247.707,70.822 255.379,87.101 262.568,47.281 "/>
<polygon fill="#38221D" points="267.742,16.477 295.117,18.935 316.488,51.121 "/>
<polygon fill="#583E36" points="267.742,16.477 279.423,12.59 295.117,18.935 "/>
<polygon fill="#462D30" points="190.606,25.242 209.629,18.935 237.689,21.987 "/>
<polygon fill="#3F1E16" points="237.689,21.986 222.387,20.322 254.334,18.934 "/>
<polygon fill="#27130E" points="262.568,47.281 316.49,51.121 267.742,16.477 "/>
<polygon fill="#866F6B" points="304.686,35.48 323.098,50.901 328.031,67.191 "/>
<polygon fill="#21110F" points="316.49,51.192 285.768,63.683 262.568,47.103 "/>
<polygon fill="#512F1C" points="285.768,63.683 255.379,87.102 262.568,47.281 "/>
<polygon fill="#795044" points="245.37,93.612 255.379,87.101 247.707,70.823 "/>
<polygon fill="#8E6854" points="255.379,87.101 285.768,105.634 245.37,93.612 "/>
<polygon fill="#A1735D" points="285.768,105.634 290.776,93.863 271.736,97.076 "/>
<polygon fill="#8E6854" points="271.408,115.109 271.736,120.16 285.768,104.605 "/>
<polygon fill="#B99582" points="271.736,97.076 271.736,87.101 255.379,87.101 "/>
<polygon fill="#351911" points="271.736,87.101 290.776,93.863 271.736,97.076 "/>
<polygon fill="#472718" points="271.736,87.101 285.768,63.682 255.379,87.101 "/>
<polygon fill="#21110F" points="271.736,87.101 316.49,51.327 285.768,63.682 "/>
<polygon fill="#392116" points="290.776,93.863 316.49,51.327 271.736,87.101 "/>
<polygon fill="#854A49" points="290.776,93.863 299.459,87.101 302.736,74.079 "/>
<polygon fill="#4D2C20" points="316.49,51.327 307.808,88.729 301.941,75.392 "/>
<polygon fill="#7A4F46" points="299.459,87.101 307.808,88.728 301.942,75.392 "/>
<polygon fill="#533320" points="307.808,88.728 314.152,97.076 316.49,51.326 "/>
<polygon fill="#472B30" points="314.152,97.076 328.512,67.191 316.49,51.326 "/>
<polygon fill="#3E1B19" points="314.152,97.076 317.451,117.655 331.851,103.756 318.945,87.101 "/>
<polygon fill="none" stroke="#EE3F25" stroke-width="0.428" stroke-miterlimit="10" points="317.451,117.655 316.49,124.793 
	317.451,134.142 "/>
<polygon fill="none" stroke="#EE3F25" stroke-width="0.428" stroke-miterlimit="10" points="317.451,134.142 325.398,150.713 
	335.19,153.178 "/>
<polygon fill="#6D483B" points="335.19,153.178 331.851,103.755 317.451,134.142 "/>
<polygon fill="#533320" points="331.851,103.755 317.451,117.654 317.451,134.141 "/>
<polygon fill="#83695E" points="331.851,103.755 318.945,87.101 328.512,67.191 "/>
<polygon fill="#C49489" points="175.711,19.621 178.214,11.941 191.739,25.928 "/>
<polygon fill="#8E8082" points="328.512,67.191 335.19,85.473 331.851,103.756 "/>
<polygon fill="#681511" points="183.725,145.658 193.155,155.961 189.354,141.697 "/>
<polygon fill="#AB6257" points="189.354,141.697 199.622,139.192 188.603,106.636 "/>
<polygon fill="#D6948C" points="188.603,106.636 204.131,79.588 198.911,137.092 "/>
<polygon fill="#C58B81" points="199.622,139.192 222.387,120.16 204.131,79.588 "/>
<polygon fill="#F3B9AD" points="221.723,120.16 247.707,120.16 204.131,79.588 "/>
<polygon fill="#F4CBB4" points="204.131,79.588 239.692,85.349 239.692,112.97 "/>
<polygon fill="#C58B81" points="204.131,79.588 228.172,65.354 239.692,85.349 "/>
<polygon fill="#FCDCC3" points="239.692,112.97 239.692,102.379 247.707,120.16 "/>
<polygon fill="#FCDBBF" points="247.707,120.16 254.043,117.655 247.707,105.091 245.37,93.612 243.699,106.636 "/>
<polygon fill="#FCDAC6" points="254.043,117.655 271.736,120.159 271.408,115.443 249.707,97.076 249.707,105.634 "/>
<polygon fill="#4F1914" points="189.354,141.697 204.131,163.736 204.131,145.658 "/>
<polygon fill="#AB6257" points="204.131,145.658 199.56,139.192 189.148,141.697 "/>
<polygon fill="none" stroke="#C92928" stroke-width="0.428" stroke-miterlimit="10" points="204.479,145.623 221.91,152.644 
	200.06,139.192 "/>
<polygon fill="#FBCEB5" points="285.291,105.148 302.735,181.268 253.802,138.923 "/>
<polygon fill="#FBCEB5" points="285.768,105.634 294.748,146.221 285.291,105.148 "/>
<polygon fill="#D99C97" points="221.91,152.717 255.137,139.192 199.622,139.192 "/>
<polygon fill="#997567" points="199.622,139.192 214.148,139.192 212.202,128.675 "/>
<polygon fill="#351911" points="222.387,128.467 222.387,139.192 214.148,139.192 "/>
<polygon fill="#21110F" points="222.387,128.467 239.692,125.898 222.387,139.192 "/>
<polygon fill="#EAAFA6" points="237.689,137.092 255.137,139.192 222.387,139.192 "/>
<polygon fill="#FBCFB9" points="237.013,137.092 239.016,125.898 247.031,120.16 253.367,117.654 271.072,120.16 254.461,139.192 
	"/>
<polygon fill="#D5998E" points="285.768,105.634 299.459,88.729 292.613,97.181 292.613,112.969 287.968,115.443 "/>
<polygon fill="none" stroke="#C92928" stroke-width="0.428" stroke-miterlimit="10" points="292.613,112.97 299.459,125.898 
	303.633,118.948 "/>
<polygon fill="none" stroke="#C92928" stroke-width="0.428" stroke-miterlimit="10" points="309.217,92.089 303.633,118.948 
	292.613,112.97 "/>
<polygon fill="#E36161" points="292.613,112.97 292.613,97.181 299.459,88.728 307.808,88.728 309.217,92.089 "/>
<polygon fill="#F8ABA1" points="309.217,92.089 317.451,117.655 303.633,118.948 "/>
<polygon fill="#E27980" points="299.459,125.898 317.451,117.655 303.633,118.948 "/>
<polygon fill="#EF9B90" points="287.968,115.443 292.613,112.97 299.459,125.897 294.748,145.658 "/>
<polygon fill="#D88B81" points="294.748,145.658 317.451,117.654 299.459,125.898 "/>
<polygon fill="none" stroke="#C92928" stroke-width="0.428" stroke-miterlimit="10" points="294.748,146.43 301.596,153.178 
	302.736,136.096 "/>
<polygon fill="#F2CBB6" points="301.942,137.092 325.398,150.713 317.451,134.142 317.451,117.654 "/>
<g>
	<defs>
		<rect id="SVGID_3_" x="-500.684" y="8.515" width="1498" height="842.624"/>
	</defs>
	<clipPath id="SVGID_4_">
		<use xlink:href="#SVGID_3_"  overflow="visible"/>
	</clipPath>
	<path clip-path="url(#SVGID_4_)" fill="#E1BEAF" d="M300.914,153.476c2.391-0.471,47.972,19.425,47.972,19.425l-13.695-19.425
		l-9.792-2.511l-23.457-13.873L300.914,153.476z"/>
	<polygon clip-path="url(#SVGID_4_)" fill="#FCCEB8" points="302.736,181.268 303.633,190.283 312.148,190.283 307.442,219.334 
		348.885,172.251 300.914,153.178 294.748,145.657 	"/>
	<polygon clip-path="url(#SVGID_4_)" fill="none" stroke="#C92928" stroke-width="0.428" stroke-miterlimit="10" points="
		221.91,152.717 227.38,168.744 231.039,155.961 	"/>
	<polygon clip-path="url(#SVGID_4_)" fill="#EBAAA7" points="204.131,145.658 204.131,163.736 221.91,152.717 	"/>
	<polygon clip-path="url(#SVGID_4_)" fill="#E39690" points="204.131,163.736 206.885,178.262 218.268,166.741 	"/>
	<polygon clip-path="url(#SVGID_4_)" fill="#D19289" points="204.131,163.736 221.91,152.717 227.38,168.745 218.268,166.741 	"/>
	<polygon clip-path="url(#SVGID_4_)" fill="#A14241" points="206.885,178.262 214.148,178.262 218.267,166.741 	"/>
	<polygon clip-path="url(#SVGID_4_)" fill="#5B1010" points="214.148,178.262 227.38,168.744 218.267,166.741 	"/>
	<polygon clip-path="url(#SVGID_4_)" fill="#E7A889" points="221.91,152.717 255.137,139.192 302.736,181.267 303.633,190.283 
		294.113,190.283 285.768,200.801 231.039,155.961 	"/>
	<polygon clip-path="url(#SVGID_4_)" fill="#E7A889" points="294.113,190.283 298.123,195.875 292.968,191.728 	"/>
	<polygon clip-path="url(#SVGID_4_)" fill="#D3988E" points="214.148,178.262 216.151,182.496 217.295,189.782 227.38,168.744 	"/>
	<polygon clip-path="url(#SVGID_4_)" fill="#741314" points="242.531,184.773 227.38,196.294 220.765,189.782 	"/>
	<polygon clip-path="url(#SVGID_4_)" fill="#A86365" points="227.38,196.294 231.04,203.807 242.531,184.773 	"/>
	<polygon clip-path="url(#SVGID_4_)" fill="#D8736E" points="231.04,203.807 248.871,228.982 258.051,216.396 	"/>
	<polygon clip-path="url(#SVGID_4_)" fill="#D78C80" points="242.531,184.773 258.051,216.395 231.04,203.808 	"/>
	<polygon clip-path="url(#SVGID_4_)" fill="#BD9288" points="242.531,184.773 231.04,155.961 227.38,168.745 217.293,189.782 
		221.91,184.773 	"/>
	<polygon clip-path="url(#SVGID_4_)" fill="#D6A38F" points="258.051,216.395 285.768,200.802 231.039,155.961 242.531,184.773 	"/>
	<polygon clip-path="url(#SVGID_4_)" fill="#814D40" points="248.872,228.982 285.768,200.802 258.051,216.395 	"/>
	<polygon clip-path="url(#SVGID_4_)" fill="#4D1813" points="248.872,228.982 260.722,232.321 283.096,221.302 	"/>
	<polygon clip-path="url(#SVGID_4_)" fill="#3A1C19" points="248.872,228.982 285.768,200.802 283.096,221.302 	"/>
	<polygon clip-path="url(#SVGID_4_)" fill="#9FB3DB" points="348.886,172.251 360.57,171 372.926,187.277 358.231,193.038 	"/>
	<polygon clip-path="url(#SVGID_4_)" fill="#905539" points="285.768,200.802 292.613,191.763 312.148,189.782 	"/>
	<polygon clip-path="url(#SVGID_4_)" fill="#A67166" points="301.596,153.178 302.736,136.096 294.748,146.43 	"/>
	<polygon clip-path="url(#SVGID_4_)" fill="#FCCEB8" points="310.03,216.395 301.942,232.322 303.633,205.811 310.445,200.802 	"/>
	<polygon clip-path="url(#SVGID_4_)" fill="#905539" points="312.148,190.283 310.445,200.801 303.633,205.81 	"/>
	<polygon clip-path="url(#SVGID_4_)" fill="#905539" points="285.768,200.995 296.281,206.097 301.291,190.283 	"/>
	<polygon clip-path="url(#SVGID_4_)" fill="#B5752B" points="283.096,221.302 281.43,232.322 290.776,236.364 296.757,203.882 
		285.768,200.802 	"/>
	<polygon clip-path="url(#SVGID_4_)" fill="none" stroke="#C92928" stroke-width="0.428" stroke-miterlimit="10" points="
		301.942,232.322 299.459,262.91 289.094,287.955 	"/>
	<polygon clip-path="url(#SVGID_4_)" fill="#3A1519" points="290.776,236.364 281.256,296.471 289.529,286.068 301.009,236.364 
		303.633,205.811 296.757,203.883 	"/>
	<polygon clip-path="url(#SVGID_4_)" fill="#D2832C" points="281.43,232.322 271.749,293.966 281.256,296.471 290.775,236.364 	"/>
	<polygon clip-path="url(#SVGID_4_)" fill="#E4A3A9" points="271.749,293.966 262.771,307.489 276.393,264.396 	"/>
	<polygon clip-path="url(#SVGID_4_)" fill="#E4A3A9" points="262.771,307.489 258.402,303.482 279.465,244.832 276.706,262.401 	"/>
	<polygon clip-path="url(#SVGID_4_)" fill="#792317" points="258.402,303.482 229.912,456.252 226.476,476.287 239.692,476.287 
		254.72,443.729 276.393,320.513 	"/>
	<polygon clip-path="url(#SVGID_4_)" fill="#6D1B10" points="276.393,320.513 262.771,307.619 271.749,293.966 281.256,296.471 	"/>
	<polygon clip-path="url(#SVGID_4_)" fill="#AE644B" points="239.692,476.287 248.872,473.281 254.72,443.729 	"/>
	<polygon clip-path="url(#SVGID_4_)" fill="#FBDFD6" points="281.936,228.982 276.393,228.982 276.393,232.321 281.256,233.429 	"/>
	<polygon clip-path="url(#SVGID_4_)" fill="#E1B1A7" points="279.465,240.871 276.393,240.871 274.254,244.833 279.465,244.833 	"/>
	<polygon clip-path="url(#SVGID_4_)" fill="#5C150E" points="283.096,221.302 276.393,228.982 281.936,228.982 	"/>
	<polygon clip-path="url(#SVGID_4_)" fill="#9CB1DA" points="301.942,231.205 335.19,242.853 358.232,193.038 348.886,172.251 	"/>
	<polygon clip-path="url(#SVGID_4_)" fill="#421F17" points="335.19,242.853 313.67,268.421 318.945,237.162 	"/>
	<polygon clip-path="url(#SVGID_4_)" fill="#331613" points="301.942,231.205 299.459,262.91 318.945,237.161 	"/>
	<polygon clip-path="url(#SVGID_4_)" fill="#5A4264" points="289.529,286.068 313.67,268.421 318.945,237.161 299.459,262.91 	"/>
	<polygon clip-path="url(#SVGID_4_)" fill="#816056" points="372.926,187.278 378.438,189.782 354.896,221.302 330.088,293.967 
		306.099,376.611 293.713,423.193 259.385,417.211 263.558,393.483 309.217,271.677 335.19,242.853 358.232,193.038 	"/>
	<polygon clip-path="url(#SVGID_4_)" fill="#A5BBE1" points="378.438,189.782 384.949,184.773 410.994,184.773 447.059,212.822 	"/>
	<polygon clip-path="url(#SVGID_4_)" fill="#7A92CA" points="447.059,212.822 462.086,237.161 468.096,261.615 421.719,203.807 	"/>
	<polygon clip-path="url(#SVGID_4_)" fill="#849BCF" points="354.896,221.302 421.717,203.808 378.438,189.782 	"/>
	<polygon clip-path="url(#SVGID_4_)" fill="#4E457F" points="318.945,332.352 348.886,311.998 354.896,221.303 	"/>
	<polygon clip-path="url(#SVGID_4_)" fill="#453C73" points="348.886,311.997 372.926,303.482 367.465,218.012 354.896,221.302 	"/>
	<polygon clip-path="url(#SVGID_4_)" fill="#301F31" points="367.465,218.012 382.945,287.955 382.945,320.512 390.96,346.058 
		360.906,354.573 372.926,303.482 	"/>
	<polygon clip-path="url(#SVGID_4_)" fill="#8B9ECF" points="468.096,261.615 485.627,311.998 494.142,361.084 494.142,387.631 
		449.063,359.08 431.531,256.399 392.967,211.335 421.718,203.807 	"/>
	<polygon clip-path="url(#SVGID_4_)" fill="#39315D" points="367.465,218.012 382.945,287.955 392.967,211.334 	"/>
	<polygon clip-path="url(#SVGID_4_)" fill="#2B1A3D" points="383.209,285.942 403.481,335.539 408.491,276.826 392.967,211.335 	"/>
	<polygon clip-path="url(#SVGID_4_)" fill="#3B4080" points="408.491,276.826 449.063,359.08 431.531,256.399 	"/>
	<polygon clip-path="url(#SVGID_4_)" fill="#5E76B9" points="408.491,276.826 431.531,256.399 392.967,211.335 	"/>
	<polygon clip-path="url(#SVGID_4_)" fill="#30356F" points="403.481,335.539 408.491,276.826 449.063,359.08 431.531,389.885 	"/>
	<polygon clip-path="url(#SVGID_4_)" fill="#313265" points="390.96,346.057 412.249,412.675 431.531,389.884 383.208,285.943 
		382.945,320.513 	"/>
	<polygon clip-path="url(#SVGID_4_)" fill="#7E7BB3" points="348.886,311.997 345.88,399.652 364.413,383.123 360.906,354.573 
		372.926,303.482 	"/>
	<polygon clip-path="url(#SVGID_4_)" fill="#554B84" points="293.311,423.193 345.857,399.652 348.885,311.997 318.727,332.352 	"/>
	<polygon clip-path="url(#SVGID_4_)" fill="#301F4C" points="390.96,346.057 360.905,354.572 364.413,383.123 	"/>
	<polygon clip-path="url(#SVGID_4_)" fill="#A39499" points="293.713,423.193 278.938,472.279 252.641,454.232 259.385,417.211 	"/>
	<polygon clip-path="url(#SVGID_4_)" fill="#321516" points="278.938,472.279 345.881,399.652 293.713,423.193 	"/>
	<polygon clip-path="url(#SVGID_4_)" fill="#2D1411" points="278.938,472.279 292.445,478.291 302.736,446.459 	"/>
	<polygon clip-path="url(#SVGID_4_)" fill="#37346E" points="364.413,383.123 348.886,460.008 292.445,478.291 302.736,446.459 
		345.881,399.652 	"/>
	<polygon clip-path="url(#SVGID_4_)" fill="#8098CE" points="390.96,346.057 348.886,460.008 364.413,383.123 	"/>
	<polygon clip-path="url(#SVGID_4_)" fill="#595A92" points="390.96,346.057 402.055,380.774 348.886,460.008 	"/>
	<polygon clip-path="url(#SVGID_4_)" fill="#1F1B40" points="407.893,397.673 413.258,411.405 397.973,435.967 345.416,461.318 
		407.893,397.673 402.342,377.766 	"/>
	<polygon clip-path="url(#SVGID_4_)" fill="#1E1112" points="449.063,359.08 440.547,407.517 412.248,412.675 431.531,389.884 	"/>
	<polygon clip-path="url(#SVGID_4_)" fill="#433E70" points="398.019,436.166 432.246,436.166 435.266,455.904 428.849,474.326 
		428.849,506.959 438.789,496.432 441.811,466.957 443.17,433.271 419.867,416.458 416.641,422.744 401.541,426.721 	"/>
	<polygon clip-path="url(#SVGID_4_)" fill="#312549" points="421.718,417.211 440.547,407.517 412.249,412.675 403.481,426.977 
		418.508,423.193 	"/>
	<polygon clip-path="url(#SVGID_4_)" fill="#2A3B72" points="494.142,387.631 506.664,433.211 444.907,417.211 	"/>
	<polygon clip-path="url(#SVGID_4_)" fill="#6B79BA" points="444.907,417.211 449.063,359.08 494.141,387.631 	"/>
	<polygon clip-path="url(#SVGID_4_)" fill="#9DB1DA" points="444.907,417.211 444.907,433.211 421.718,417.211 445.92,403.032 	"/>
	<polygon clip-path="url(#SVGID_4_)" fill="#2A3B72" points="445.92,403.032 440.81,406.027 449.063,359.08 	"/>
	<polygon clip-path="url(#SVGID_4_)" fill="#1A1328" points="506.664,433.211 440.547,493.316 444.907,417.211 	"/>
	<polygon clip-path="url(#SVGID_4_)" fill="#2B2139" points="506.664,433.211 501.1,464.766 429.904,503.334 	"/>
	<polygon clip-path="url(#SVGID_4_)" fill="#181016" points="501.154,464.766 469.525,499.326 430.656,503.334 	"/>
	<polygon clip-path="url(#SVGID_4_)" fill="#180F0F" points="430.656,503.334 428.776,515.855 440.547,524.871 469.525,499.326 	"/>
	<polygon clip-path="url(#SVGID_4_)" fill="#110B0E" points="475.785,492.486 478.113,524.871 452.568,538.896 431.531,529.881 
		440.547,524.871 	"/>
	<polygon clip-path="url(#SVGID_4_)" fill="#BB8978" points="437.041,454.748 412.249,468.273 416.004,439.723 399.975,435.965 
		434.036,435.965 	"/>
	<polygon clip-path="url(#SVGID_4_)" fill="#F9FAE7" points="412.249,468.273 299.459,503.334 251.435,488.307 226.477,492.486 
		239.692,476.287 248.871,473.281 252.641,454.232 278.938,472.279 292.445,478.291 348.886,460.008 397.973,435.965 
		416.004,439.723 	"/>
	<polygon clip-path="url(#SVGID_4_)" fill="none" stroke="#EE4723" stroke-width="0.428" stroke-miterlimit="10" points="
		226.476,492.486 239.692,476.287 226.476,476.287 206.134,484.387 206.134,496.822 	"/>
	<polygon clip-path="url(#SVGID_4_)" fill="#673632" points="206.134,496.822 222.912,503.334 251.436,488.307 	"/>
	<polygon clip-path="url(#SVGID_4_)" fill="#FDDED3" points="206.134,484.387 214.148,472.279 217.153,460.008 229.912,456.252 
		226.475,476.287 	"/>
	<polygon clip-path="url(#SVGID_4_)" fill="#D3A5A8" points="206.134,496.822 206.134,506.34 218.023,512.1 233.683,509.846 
		248.872,512.1 254.719,504.461 239.692,504.461 259.385,490.795 251.436,488.307 222.912,503.334 	"/>
	<polygon clip-path="url(#SVGID_4_)" fill="#D1ACAB" points="206.134,506.34 206.134,517.359 212.645,524.871 229.912,522.869 	"/>
	<polygon clip-path="url(#SVGID_4_)" fill="#FCD4C5" points="206.134,506.34 218.023,512.1 229.912,522.869 	"/>
	<polygon clip-path="url(#SVGID_4_)" fill="#ECBABD" points="218.023,512.1 233.683,509.846 248.872,512.1 229.912,522.869 	"/>
	<polygon clip-path="url(#SVGID_4_)" fill="#B9848A" points="248.872,512.1 244.545,534.389 229.912,522.869 	"/>
	<polygon clip-path="url(#SVGID_4_)" fill="#BD827F" points="206.134,517.359 196.116,517.359 196.116,530.383 212.645,538.896 
		244.545,534.389 229.912,522.867 212.645,524.871 	"/>
	<polygon clip-path="url(#SVGID_4_)" fill="#997171" points="244.545,534.389 247.207,513.047 254.721,504.461 304.237,522.869 	"/>
	<polygon clip-path="url(#SVGID_4_)" fill="#FFF1E9" points="239.692,504.461 259.385,490.795 254.72,504.461 	"/>
	<polygon clip-path="url(#SVGID_4_)" fill="#FCDBC2" points="254.72,504.461 299.459,503.334 259.385,490.795 	"/>
	<polygon clip-path="url(#SVGID_4_)" fill="#BB8978" points="299.459,503.334 304.237,522.869 254.72,504.461 	"/>
	<polygon clip-path="url(#SVGID_4_)" fill="none" stroke="#EE4723" stroke-width="0.428" stroke-miterlimit="10" points="
		304.237,522.869 430.656,472.279 361.494,484.051 	"/>
	<polygon clip-path="url(#SVGID_4_)" fill="#B98E85" points="361.494,484.051 299.459,503.334 304.237,522.869 	"/>
	<polygon clip-path="url(#SVGID_4_)" fill="#5E2D4D" points="276.393,232.322 258.051,268.421 265.443,283.88 279.465,244.833 
		274.254,244.833 276.393,240.871 279.465,240.871 281.256,233.429 	"/>
	<polygon clip-path="url(#SVGID_4_)" fill="#753962" points="258.051,268.421 224.416,298.474 235.373,426.977 258.402,303.482 
		265.443,283.88 	"/>
	<polygon clip-path="url(#SVGID_4_)" fill="#CA6828" points="224.416,298.474 179.587,462.375 212.576,389.885 	"/>
	<polygon clip-path="url(#SVGID_4_)" fill="#8B4C6F" points="212.576,389.885 235.373,426.977 224.416,298.474 	"/>
	<polygon clip-path="url(#SVGID_4_)" fill="#621912" points="212.576,389.885 235.373,426.977 229.913,456.252 	"/>
	<polygon clip-path="url(#SVGID_4_)" fill="#8B4C6F" points="179.586,462.375 229.912,456.252 212.576,389.885 	"/>
	<polygon clip-path="url(#SVGID_4_)" fill="#7C5442" points="361.494,484.051 430.656,472.279 437.041,454.748 	"/>
	<polygon clip-path="url(#SVGID_4_)" fill="#341914" points="304.237,522.869 430.656,503.334 430.656,472.279 	"/>
	<polygon clip-path="url(#SVGID_4_)" fill="#B9848A" points="215.65,538.896 258.402,534.389 244.545,534.389 	"/>
	<polygon clip-path="url(#SVGID_4_)" fill="#291218" points="258.402,534.389 304.237,522.869 244.545,534.389 	"/>
	<polygon clip-path="url(#SVGID_4_)" fill="#1B0F11" points="304.237,522.869 440.547,524.871 428.776,515.855 430.656,503.334 	"/>
	<polygon clip-path="url(#SVGID_4_)" fill="#25408B" points="478.113,524.871 463.088,676.139 452.568,538.896 	"/>
	<polygon clip-path="url(#SVGID_4_)" fill="#2A54A0" points="431.531,529.881 463.088,676.139 452.568,538.896 	"/>
	<polygon clip-path="url(#SVGID_4_)" fill="#263570" points="463.088,678.143 403.481,640.576 443.555,585.607 	"/>
	<polygon clip-path="url(#SVGID_4_)" fill="#4F81C2" points="403.481,640.576 367.465,593.492 443.555,585.607 	"/>
	<polygon clip-path="url(#SVGID_4_)" fill="#17122D" points="431.531,529.881 367.465,593.492 443.555,585.607 	"/>
	<polygon clip-path="url(#SVGID_4_)" fill="#181425" points="440.547,524.871 431.531,529.881 383.209,577.861 369.922,556.428 
		426.273,524.662 	"/>
	<polygon clip-path="url(#SVGID_4_)" fill="#261E30" points="369.922,556.428 342.875,538.896 426.273,524.662 	"/>
	<polygon clip-path="url(#SVGID_4_)" fill="none" stroke="#EE4723" stroke-width="0.428" stroke-miterlimit="10" points="
		342.875,538.896 295.518,542.904 304.237,522.869 	"/>
	<polygon clip-path="url(#SVGID_4_)" fill="#1D1D44" points="342.875,538.896 426.273,524.662 304.237,522.869 	"/>
	<polygon clip-path="url(#SVGID_4_)" fill="#1D1110" points="295.518,542.904 262.568,551.262 304.237,522.869 	"/>
	<polygon clip-path="url(#SVGID_4_)" fill="none" stroke="#EE4723" stroke-width="0.428" stroke-miterlimit="10" points="
		262.568,551.262 244.545,534.389 258.402,534.389 	"/>
	<polygon clip-path="url(#SVGID_4_)" fill="#3D3648" points="262.568,551.262 258.402,534.389 304.237,522.869 	"/>
	<polygon clip-path="url(#SVGID_4_)" fill="#574572" points="179.586,462.375 159.551,522.869 191.107,542.824 	"/>
	<polygon clip-path="url(#SVGID_4_)" fill="#5A3461" points="179.586,462.375 229.912,456.252 181.005,472.279 	"/>
	<polygon clip-path="url(#SVGID_4_)" fill="#623D69" points="181.005,472.279 215.65,460.926 214.147,472.279 	"/>
	<polygon clip-path="url(#SVGID_4_)" fill="#4F2447" points="214.148,472.279 206.134,484.387 181.005,472.279 	"/>
	<polygon clip-path="url(#SVGID_4_)" fill="#452438" points="206.134,484.387 206.134,517.359 181.005,472.279 	"/>
	<polygon clip-path="url(#SVGID_4_)" fill="#44263D" points="206.134,517.359 187.459,517.359 181.005,472.279 	"/>
	<polygon clip-path="url(#SVGID_4_)" fill="#4D447F" points="196.116,517.359 196.116,530.383 191.107,542.824 187.459,517.359 	"/>
	<polygon clip-path="url(#SVGID_4_)" fill="#70514E" points="212.645,538.896 198.328,613.092 202.002,610.523 218.023,538.896 	"/>
	<polygon clip-path="url(#SVGID_4_)" fill="#925724" points="235.373,535.686 222.912,600.506 202.002,610.523 218.023,538.896 	"/>
	<polygon clip-path="url(#SVGID_4_)" fill="none" stroke="#EE4723" stroke-width="0.428" stroke-miterlimit="10" points="
		222.914,600.506 239.692,605.014 252.641,561.688 	"/>
	<polygon clip-path="url(#SVGID_4_)" fill="#20120E" points="252.641,561.688 230.896,558.973 222.914,600.506 	"/>
	<polygon clip-path="url(#SVGID_4_)" fill="#816D6C" points="230.896,558.973 235.373,535.686 254.72,551.262 	"/>
	<polygon clip-path="url(#SVGID_4_)" fill="#A5AAA8" points="254.72,551.262 252.641,561.688 230.896,558.973 	"/>
	<polygon clip-path="url(#SVGID_4_)" fill="#C8C1C1" points="244.545,534.389 262.568,551.262 254.721,551.262 235.373,535.686 	"/>
	<polygon clip-path="url(#SVGID_4_)" fill="#253C7D" points="239.299,604.264 273.178,578.506 254.163,551.262 	"/>
	<polygon clip-path="url(#SVGID_4_)" fill="#101118" points="273.178,577.861 295.518,542.904 262.568,551.262 	"/>
	<polygon clip-path="url(#SVGID_4_)" fill="#5F84C3" points="262.381,551.262 254.394,551.262 273.178,579.318 	"/>
	<polygon clip-path="url(#SVGID_4_)" fill="#85A0D1" points="273.178,577.861 342.875,538.896 295.518,542.904 	"/>
	<polygon clip-path="url(#SVGID_4_)" fill="#7090C9" points="273.178,577.861 369.922,556.428 342.875,538.896 	"/>
	<polygon clip-path="url(#SVGID_4_)" fill="#6C8CC7" points="369.922,556.428 367.465,593.492 383.209,577.861 	"/>
	<polygon clip-path="url(#SVGID_4_)" fill="#89ADDB" points="273.178,577.861 367.465,593.492 369.922,556.428 	"/>
	<polygon clip-path="url(#SVGID_4_)" fill="#425CA9" points="273.178,577.861 240.291,603.01 367.465,593.492 	"/>
	<polygon clip-path="url(#SVGID_4_)" fill="#4164AD" points="240.291,603.01 226.477,631.875 367.465,593.492 	"/>
	<polygon clip-path="url(#SVGID_4_)" fill="#2D5198" points="226.476,631.875 277.09,631.875 367.465,593.492 	"/>
	<polygon clip-path="url(#SVGID_4_)" fill="#D7A77F" points="198.328,613.092 187.459,656.104 181.005,702.184 191.789,657.637 	"/>
	<polygon clip-path="url(#SVGID_4_)" fill="#837E72" points="198.591,613.158 232.246,616.402 216.492,601.051 	"/>
	<polygon clip-path="url(#SVGID_4_)" fill="#20151A" points="231.465,615.531 240.274,603.113 223.13,597.791 215.547,601.898 	"/>
	<polygon clip-path="url(#SVGID_4_)" fill="#110F13" points="230.896,615.531 226.476,631.875 239.333,605.014 	"/>
	<polygon clip-path="url(#SVGID_4_)" fill="#151016" points="248.872,631.875 213.201,673.176 226.861,631.875 	"/>
	<polygon clip-path="url(#SVGID_4_)" fill="#1F120D" points="198.442,613.092 193.569,646.84 231.793,615.633 	"/>
	<polygon clip-path="url(#SVGID_4_)" fill="#341914" points="233.18,612.684 193.797,645.781 213.851,672.42 	"/>
	<polygon clip-path="url(#SVGID_4_)" fill="#341914" points="194.145,645.088 179.848,706.156 179.848,713.17 215.771,671.078 	"/>
	<polygon clip-path="url(#SVGID_4_)" fill="#18212D" points="181.005,708.695 159.55,741.252 288.279,746.262 	"/>
	<polygon clip-path="url(#SVGID_4_)" fill="#2F254F" points="191.107,542.824 212.645,538.896 196.116,530.383 	"/>
	<polygon clip-path="url(#SVGID_4_)" fill="none" stroke="#EE4723" stroke-width="0.428" stroke-miterlimit="10" points="
		191.107,542.824 183.092,561.688 208.176,562.059 	"/>
	<polygon clip-path="url(#SVGID_4_)" fill="#362A59" points="208.176,562.059 212.646,538.896 191.107,542.824 	"/>
	<polygon clip-path="url(#SVGID_4_)" fill="#201328" points="183.092,561.688 201.876,594.701 208.176,562.059 	"/>
	<polygon clip-path="url(#SVGID_4_)" fill="#5157A5" points="159.551,522.869 143.021,524.871 183.092,561.688 	"/>
	<polygon clip-path="url(#SVGID_4_)" fill="#9DC3E6" points="183.092,561.688 191.107,542.824 159.551,522.869 	"/>
	<polygon clip-path="url(#SVGID_4_)" fill="#413450" points="143.022,524.871 138.514,542.277 156.293,537.064 	"/>
	<polygon clip-path="url(#SVGID_4_)" fill="#271110" points="138.514,542.277 147.404,558.379 156.294,537.064 	"/>
	<polygon clip-path="url(#SVGID_4_)" fill="#525256" points="147.404,558.379 138.514,583.35 175.33,575.994 	"/>
	<polygon clip-path="url(#SVGID_4_)" fill="#311C23" points="147.404,558.379 183.092,561.688 156.293,537.064 	"/>
	<polygon clip-path="url(#SVGID_4_)" fill="#281519" points="183.092,561.688 201.876,594.701 175.33,575.994 	"/>
	<polygon clip-path="url(#SVGID_4_)" fill="#251619" points="175.33,575.994 183.092,561.688 147.404,558.379 	"/>
	<polygon clip-path="url(#SVGID_4_)" fill="#716E77" points="138.514,583.35 125.492,613.092 175.33,575.994 	"/>
	<polygon clip-path="url(#SVGID_4_)" fill="none" stroke="#EE4723" stroke-width="0.428" stroke-miterlimit="10" points="
		175.33,575.994 159.551,625.549 143.021,615.531 	"/>
	<polygon clip-path="url(#SVGID_4_)" fill="#6A697A" points="125.491,613.092 143.022,615.531 175.33,575.994 	"/>
	<polygon clip-path="url(#SVGID_4_)" fill="#F7F4F0" points="125.491,613.092 102.451,678.143 159.551,625.549 143.022,615.531 	"/>
	<polygon clip-path="url(#SVGID_4_)" fill="#24151C" points="159.551,625.549 172.073,642.578 201.877,594.701 175.33,575.994 	"/>
	<polygon clip-path="url(#SVGID_4_)" fill="#B77465" points="131.001,698.178 159.55,625.549 172.073,642.578 	"/>
	<polygon clip-path="url(#SVGID_4_)" fill="#7F362F" points="131.001,698.178 147.403,676.139 145.526,702.184 	"/>
	<polygon clip-path="url(#SVGID_4_)" fill="#8D4839" points="145.526,702.184 131,737.246 131,698.178 	"/>
	<polygon clip-path="url(#SVGID_4_)" fill="#6F2D23" points="131.001,698.178 122.987,700.18 120.983,729.732 	"/>
	<polygon clip-path="url(#SVGID_4_)" fill="#A66F5D" points="122.987,700.18 122.987,693.115 131,698.178 	"/>
	<polygon clip-path="url(#SVGID_4_)" fill="#8D3F3B" points="131.001,698.178 131.001,737.246 120.983,729.732 	"/>
	<polygon clip-path="url(#SVGID_4_)" fill="#F5E7DE" points="102.451,678.143 81.414,711.199 122.987,693.115 	"/>
	<polygon clip-path="url(#SVGID_4_)" fill="#FBF8F8" points="81.414,711.199 95.939,737.246 98.299,703.855 	"/>
	<polygon clip-path="url(#SVGID_4_)" fill="#D3A4AF" points="98.299,703.855 98.299,713.955 105.456,708.904 	"/>
	<polygon clip-path="url(#SVGID_4_)" fill="none" stroke="#EE4723" stroke-width="0.428" stroke-miterlimit="10" points="
		105.456,708.904 105.456,734.24 112.468,723.723 	"/>
	<polygon clip-path="url(#SVGID_4_)" fill="#D3A4AF" points="105.456,708.904 122.987,693.115 98.299,703.855 	"/>
	<polygon clip-path="url(#SVGID_4_)" fill="#F9F8F3" points="105.456,734.24 105.456,740.252 108.962,744.258 120.983,729.732 
		112.468,723.723 	"/>
	<polygon clip-path="url(#SVGID_4_)" fill="#F7EAE4" points="112.468,723.723 122.987,693.115 105.456,708.904 	"/>
	<polygon clip-path="url(#SVGID_4_)" fill="#F9DCD8" points="112.468,723.723 120.983,729.732 122.987,693.115 	"/>
	<polygon clip-path="url(#SVGID_4_)" fill="#FEF4F3" points="81.414,711.199 86.422,752.273 95.939,737.246 	"/>
	<polygon clip-path="url(#SVGID_4_)" fill="#D2B2B8" points="86.422,752.273 108.962,746.262 95.939,737.246 	"/>
	<polygon clip-path="url(#SVGID_4_)" fill="#7F362F" points="95.939,737.246 105.457,734.24 105.457,708.904 95.939,713.955 	"/>
	<polygon clip-path="url(#SVGID_4_)" fill="none" stroke="#EE4723" stroke-width="0.428" stroke-miterlimit="10" points="
		105.456,734.24 105.456,743.834 95.939,737.246 	"/>
	<polygon clip-path="url(#SVGID_4_)" fill="#FDE4E2" points="108.962,744.258 105.456,739.037 105.456,734.24 95.939,737.246 
		108.962,746.262 	"/>
	<polygon clip-path="url(#SVGID_4_)" fill="#DEB2BD" points="86.422,752.273 97.692,798.355 105.457,780.324 	"/>
	<polygon clip-path="url(#SVGID_4_)" fill="#C89196" points="105.456,780.324 98.299,749.105 86.422,752.273 	"/>
	<polygon clip-path="url(#SVGID_4_)" fill="#441A1D" points="97.692,798.355 105.457,794.85 105.457,780.324 	"/>
	<polygon clip-path="url(#SVGID_4_)" fill="#7F3F2D" points="105.456,794.85 112.468,749.105 105.456,780.324 	"/>
	<polygon clip-path="url(#SVGID_4_)" fill="none" stroke="#EC3A26" stroke-width="0.428" stroke-miterlimit="10" points="
		112.468,749.105 98.299,749.105 105.383,761.791 	"/>
	<polygon clip-path="url(#SVGID_4_)" fill="#FFF7F0" points="98.299,749.105 104.956,777.318 112.468,749.105 105.384,761.791 	"/>
	<polygon clip-path="url(#SVGID_4_)" fill="#B23D3A" points="109.374,769.291 110.643,785.834 120.983,775.314 	"/>
	<polygon clip-path="url(#SVGID_4_)" fill="#261010" points="110.643,785.834 117.728,789.34 120.983,780.324 120.983,775.314 	"/>
	<polygon clip-path="url(#SVGID_4_)" fill="#873B33" points="120.983,775.314 122.987,755.449 112.468,770.896 	"/>
	<polygon clip-path="url(#SVGID_4_)" fill="#7F3F2D" points="112.468,770.896 108.134,765.381 112.468,749.105 122.987,755.449 	"/>
	<polygon clip-path="url(#SVGID_4_)" fill="#8C4740" points="122.987,755.449 125.992,743.834 112.468,749.105 	"/>
	<polygon clip-path="url(#SVGID_4_)" fill="#1A1010" points="120.983,729.732 131,737.246 108.962,746.262 	"/>
	<polygon clip-path="url(#SVGID_4_)" fill="#DE9C9E" points="120.983,729.732 119.23,739.037 110.728,743.834 	"/>
	<polygon clip-path="url(#SVGID_4_)" fill="#EC9E88" points="131.001,737.246 125.992,743.834 108.962,746.262 	"/>
	<polygon clip-path="url(#SVGID_4_)" fill="#8D3F3B" points="108.962,746.262 98.299,749.105 112.469,749.105 125.992,743.834 	"/>
	<polygon clip-path="url(#SVGID_4_)" fill="#252855" points="288.279,746.262 248.872,631.875 181.005,708.695 	"/>
	<polygon clip-path="url(#SVGID_4_)" fill="#1A162F" points="288.279,746.262 277.09,631.875 248.872,631.875 	"/>
	<polygon clip-path="url(#SVGID_4_)" fill="#221B39" points="288.279,746.262 312.408,713.955 277.09,631.875 	"/>
	<polygon clip-path="url(#SVGID_4_)" fill="#161426" points="312.408,713.955 378.438,749.105 277.09,631.875 	"/>
	<polygon clip-path="url(#SVGID_4_)" fill="#263570" points="378.438,749.105 367.465,593.492 277.09,631.875 	"/>
	<polygon clip-path="url(#SVGID_4_)" fill="#1D1B2C" points="378.438,749.105 403.481,640.576 367.465,593.492 	"/>
	<polygon clip-path="url(#SVGID_4_)" fill="#14132D" points="378.438,749.105 426.273,689.162 403.481,640.576 	"/>
	<polygon clip-path="url(#SVGID_4_)" fill="#15131D" points="426.273,689.162 463.088,678.143 403.481,640.576 	"/>
	<polygon clip-path="url(#SVGID_4_)" fill="#121322" points="426.273,689.162 399.975,775.314 378.438,749.105 	"/>
	<polygon clip-path="url(#SVGID_4_)" fill="#161520" points="312.408,713.955 334.357,734.24 378.438,749.105 	"/>
	<polygon clip-path="url(#SVGID_4_)" fill="#14131C" points="334.357,734.24 399.975,775.314 378.438,749.105 	"/>
	<polygon clip-path="url(#SVGID_4_)" fill="#140F14" points="399.975,775.314 369.922,775.314 354.393,749.105 	"/>
	<polygon clip-path="url(#SVGID_4_)" fill="#0E0C10" points="369.922,775.314 359.5,816.389 315.824,813.383 	"/>
	<polygon clip-path="url(#SVGID_4_)" fill="#0B0A0C" points="354.393,749.105 315.824,813.383 369.922,775.314 	"/>
	<polygon clip-path="url(#SVGID_4_)" fill="#0D0A0D" points="288.279,746.262 315.824,813.383 312.408,713.955 	"/>
	<polygon clip-path="url(#SVGID_4_)" fill="#0B0909" points="312.408,713.955 334.357,734.24 315.824,813.383 	"/>
	<polygon clip-path="url(#SVGID_4_)" fill="none" stroke="#0B0909" stroke-miterlimit="10" points="312.408,713.955 334.357,734.24 
		315.824,813.383 	"/>
	<polygon clip-path="url(#SVGID_4_)" fill="#0E0C10" points="334.357,734.24 354.393,749.105 315.824,813.383 	"/>
	<polygon clip-path="url(#SVGID_4_)" fill="#1A2638" points="159.657,741.133 122.987,820.896 288.756,746.15 	"/>
	<polygon clip-path="url(#SVGID_4_)" fill="#111722" points="288.279,746.262 226.476,850.584 122.987,820.896 	"/>
	<polygon clip-path="url(#SVGID_4_)" fill="#131A2B" points="122.987,820.896 115.561,850.584 226.476,850.584 	"/>
	<polygon clip-path="url(#SVGID_4_)" fill="#0B0A0C" points="315.824,813.383 226.475,850.584 288.279,746.262 	"/>
	<polygon clip-path="url(#SVGID_4_)" fill="#13141C" points="315.824,813.383 302.051,850.584 226.475,850.584 	"/>
	<polygon clip-path="url(#SVGID_4_)" fill="#AC846C" points="239.692,102.378 239.692,85.348 245.37,93.612 	"/>
	<polygon clip-path="url(#SVGID_4_)" fill="#E7A889" points="203.718,145.066 221.91,152.717 199.622,139.192 	"/>
	<polygon clip-path="url(#SVGID_4_)" fill="#997567" points="198.275,144.496 192.009,145.657 197.918,147.024 	"/>
	<polygon clip-path="url(#SVGID_4_)" fill="#AC3F2F" points="292.613,112.97 298.123,106.635 303.633,118.948 	"/>
	<polygon clip-path="url(#SVGID_4_)" fill="#AC3F2F" points="297.917,106.3 298.123,106.636 292.613,112.969 	"/>
	<polygon clip-path="url(#SVGID_4_)" fill="#E36161" points="303.633,118.948 298.123,106.635 309.217,92.089 	"/>
	<polygon clip-path="url(#SVGID_4_)" fill="#8B1F1D" points="292.613,112.97 299.459,125.898 303.633,118.948 	"/>
	<polygon clip-path="url(#SVGID_4_)" fill="#D5998E" points="299.459,87.101 307.808,88.728 299.459,88.728 286.566,103.755 
		290.776,93.863 	"/>
	<polygon clip-path="url(#SVGID_4_)" fill="#F8ABA1" points="292.445,97.389 308.455,93.047 299.459,88.728 	"/>
	<polygon clip-path="url(#SVGID_4_)" fill="#D5998E" points="299.459,88.728 307.808,88.728 308.455,93.047 	"/>
	<polygon clip-path="url(#SVGID_4_)" fill="#EF9B90" points="307.808,88.728 314.152,97.076 317.449,117.655 	"/>
	<polygon clip-path="url(#SVGID_4_)" fill="#D5998E" points="292.445,97.389 298.123,106.636 308.455,93.047 	"/>
	<polygon clip-path="url(#SVGID_4_)" fill="#E1BEAF" points="317.451,134.142 325.398,150.713 335.19,153.178 	"/>
	<polygon clip-path="url(#SVGID_4_)" fill="#D99C97" points="221.91,152.717 231.039,155.961 227.38,168.744 	"/>
	<polygon clip-path="url(#SVGID_4_)" fill="#391715" points="248.872,228.982 254.043,232.321 260.722,232.321 	"/>
	<polygon clip-path="url(#SVGID_4_)" fill="#3C1C13" points="303.633,205.811 296.757,203.882 298.123,195.875 312.148,190.283 	"/>
	<polygon clip-path="url(#SVGID_4_)" fill="#3C1C13" points="301.942,231.205 310.445,200.802 303.633,205.811 	"/>
	<polygon clip-path="url(#SVGID_4_)" fill="#362A59" points="183.092,561.688 191.107,542.824 208.176,562.059 	"/>
	<polygon clip-path="url(#SVGID_4_)" fill="#525256" points="143.022,615.531 175.33,575.994 159.552,625.549 	"/>
	<polygon clip-path="url(#SVGID_4_)" fill="#7F362F" points="81.414,711.199 78.909,727.479 86.422,752.273 	"/>
	<polygon clip-path="url(#SVGID_4_)" fill="#8D4839" points="105.456,708.904 105.456,734.24 112.468,723.723 	"/>
	<polygon clip-path="url(#SVGID_4_)" fill="#DEB2BD" points="98.299,749.105 112.468,749.105 105.384,761.791 	"/>
	<polygon clip-path="url(#SVGID_4_)" fill="#B0C2E4" points="301.942,231.205 308.455,218.185 348.886,172.251 	"/>
	<polyline clip-path="url(#SVGID_4_)" fill="#1F1B40" points="348.886,460.008 402.131,379.173 407.322,398.432 	"/>
	<polygon clip-path="url(#SVGID_4_)" fill="#BD827F" points="206.134,517.359 203.174,507.709 206.134,506.34 	"/>
	<polygon clip-path="url(#SVGID_4_)" fill="#BD827F" points="206.134,506.34 204.653,499.326 206.134,496.822 	"/>
	<polygon clip-path="url(#SVGID_4_)" fill="#D3A5A8" points="206.134,485.225 204.749,492.486 206.134,496.822 226.475,492.486 
		239.692,476.287 226.475,476.287 206.134,484.387 	"/>
	<polygon clip-path="url(#SVGID_4_)" fill="#421F17" points="289.529,286.068 299.564,261.615 301.686,233.429 	"/>
	<polygon clip-path="url(#SVGID_4_)" fill="#753962" points="309.217,271.676 289.529,286.067 289.529,324.198 	"/>
	<polyline clip-path="url(#SVGID_4_)" fill="#5E2D4D" points="289.822,284.715 289.381,323.963 263.558,393.484 276.537,319.014 
		281.455,294.479 	"/>
	<polyline clip-path="url(#SVGID_4_)" fill="#6380BF" points="239.062,604.574 222.842,599.102 253.085,558.438 	"/>
	<polygon clip-path="url(#SVGID_4_)" fill="#936956" points="304.237,522.869 361.494,484.051 430.656,472.279 	"/>
	<polygon clip-path="url(#SVGID_4_)" fill="#252158" points="258.402,534.389 244.545,534.389 262.568,551.262 	"/>
	<polygon clip-path="url(#SVGID_4_)" fill="#252158" points="304.237,522.869 295.518,542.904 342.875,538.896 	"/>
	<polygon clip-path="url(#SVGID_4_)" fill="#14131C" points="334.357,734.24 354.393,749.105 399.975,775.314 	"/>
	<polygon clip-path="url(#SVGID_4_)" fill="#14131C" points="318.727,332.352 330.477,292.826 354.895,221.303 	"/>
	<polygon clip-path="url(#SVGID_4_)" fill="#FBCFB9" points="222.387,123.029 238.631,125.852 243.7,123.029 	"/>
	<polygon clip-path="url(#SVGID_4_)" fill="#997567" points="214.148,139.192 212.202,128.675 221.723,120.16 247.031,120.16 
		243.7,123.029 222.338,122.162 216.151,128.675 	"/>
	<polygon clip-path="url(#SVGID_4_)" fill="#997567" points="191.742,145.438 198.344,144.375 204.455,145.695 197.918,146.97 
		195.452,150.721 	"/>
	<polygon clip-path="url(#SVGID_4_)" fill="#6A2F2A" points="204.168,145.658 195.644,150.815 197.932,147.052 	"/>
	<polygon clip-path="url(#SVGID_4_)" fill="#351911" points="198.905,148.829 197.031,153.178 199.881,157.399 196.136,154.697 
		195.365,150.713 	"/>
	<polygon clip-path="url(#SVGID_4_)" fill="#351911" points="204.119,153.051 204.119,157.453 201.589,160.218 198.107,158.623 
		196.144,154.635 	"/>
	<polygon clip-path="url(#SVGID_4_)" fill="#21110F" points="204.131,149.314 197.928,149.314 196.574,155.502 197.928,158.521 
		204.119,152.222 	"/>
	<polygon clip-path="url(#SVGID_4_)" fill="#3C1611" points="204.118,145.773 197.682,149.586 204.131,149.586 	"/>
	<polygon clip-path="url(#SVGID_4_)" fill="#351911" points="204.119,157.351 202.115,160.731 201.658,160.051 	"/>
	<polygon clip-path="url(#SVGID_4_)" fill="#AC846C" points="239.692,102.378 247.604,119.933 243.7,106.636 	"/>
	<polygon clip-path="url(#SVGID_4_)" fill="#C58B81" points="204.175,79.773 198.912,137.092 199.623,139.192 	"/>
	<polygon clip-path="url(#SVGID_4_)" fill="#AB6257" points="189.398,141.764 191.742,145.438 198.345,144.375 204.455,145.695 
		203.719,145.066 	"/>
	<polygon clip-path="url(#SVGID_4_)" fill="#EBAAA7" points="204.118,145.773 203.897,145.22 222.092,152.644 	"/>
	<polygon clip-path="url(#SVGID_4_)" fill="#6A2F2A" points="238.631,125.852 233.043,137.092 225.918,141.764 214.148,139.192 
		223.754,138.142 	"/>
	<polygon clip-path="url(#SVGID_4_)" fill="#FBCFB9" points="238.631,125.852 233.043,137.092 237.013,137.092 	"/>
	<polygon clip-path="url(#SVGID_4_)" fill="#AD484B" points="220.764,193.14 222.092,191.09 242.531,184.773 220.764,190.282 	"/>
	<polygon clip-path="url(#SVGID_4_)" fill="#FBCFB9" points="243.072,123.379 222.338,122.163 216.152,128.675 222.387,123.029 	"/>
	<polygon clip-path="url(#SVGID_4_)" fill="#C58B81" points="197.682,149.585 195.842,153.178 195.365,150.714 	"/>
	<polygon clip-path="url(#SVGID_4_)" fill="#C87075" points="231.04,203.807 227.38,201.728 227.38,196.294 	"/>
	<polygon clip-path="url(#SVGID_4_)" fill="#C87075" points="227.38,201.729 225.658,198.189 227.38,196.294 	"/>
	<polygon clip-path="url(#SVGID_4_)" fill="#AD484B" points="242.531,184.773 222.387,187.278 220.765,190.283 	"/>
	<polygon clip-path="url(#SVGID_4_)" fill="#741314" points="222.092,191.09 220.764,193.14 225.658,198.19 227.38,196.293 	"/>
	<polygon clip-path="url(#SVGID_4_)" fill="#BD9288" points="242.531,184.773 221.91,186.178 219.269,191.09 218.055,188.956 
		221.91,184.773 	"/>
	<polygon clip-path="url(#SVGID_4_)" fill="#BD9288" points="242.531,184.773 221.91,186.178 220.416,188.956 220.765,190.283 
		221.91,187.528 	"/>
	<polygon clip-path="url(#SVGID_4_)" fill="#BD9288" points="219.939,191.915 219.269,191.089 220.416,188.957 221.91,187.528 
		222.25,187.528 	"/>
	<polygon clip-path="url(#SVGID_4_)" fill="#AD484B" points="220.8,190.283 219.939,191.915 220.765,193.141 	"/>
	<polygon clip-path="url(#SVGID_4_)" fill="#70514E" points="229.912,476.287 260.314,305.235 258.402,303.482 226.476,476.287 	"/>
	<polygon clip-path="url(#SVGID_4_)" fill="#FBDFD6" points="277.024,254.176 271.482,254.176 271.482,257.516 276.346,258.622 	"/>
	<polygon clip-path="url(#SVGID_4_)" fill="#FBDFD6" points="294.613,255.878 289.071,255.878 289.071,259.218 293.935,260.324 	"/>
	<polygon clip-path="url(#SVGID_4_)" fill="#FBDFD6" points="294.613,254.365 289.071,254.365 289.071,257.704 293.935,258.812 	"/>
	<polygon clip-path="url(#SVGID_4_)" fill="#FBDFD6" points="273.844,269.453 268.301,269.453 268.301,272.793 273.166,273.899 	"/>
	<polygon clip-path="url(#SVGID_4_)" fill="#21110F" points="214.148,139.192 222.387,128.467 238.631,125.852 221.91,127.465 
		220.76,128.467 	"/>
	<polygon clip-path="url(#SVGID_4_)" fill="#FBCFB9" points="198.098,149.585 203.896,147.023 204.131,149.585 	"/>
	<polygon clip-path="url(#SVGID_4_)" fill="#FBCFB9" points="214.148,139.192 214.557,138.142 218.267,128.604 222.387,125.748 
		238.631,125.852 221.91,127.465 220.76,128.467 	"/>
	<polygon clip-path="url(#SVGID_4_)" fill="#FBCFB9" points="214.557,138.142 216.15,128.675 222.387,123.029 238.631,125.852 
		221.91,127.465 219.269,129.314 	"/>
	<polygon clip-path="url(#SVGID_4_)" fill="#FBCFB9" points="202.297,149.407 196.948,151.299 197.913,149.407 	"/>
	<polyline clip-path="url(#SVGID_4_)" fill="#82604D" points="249.153,94.771 245.37,93.613 271.408,115.443 	"/>
	<polygon clip-path="url(#SVGID_4_)" fill="#C18878" points="211.143,34.007 168.003,16.415 177.083,27.997 	"/>
	<polygon clip-path="url(#SVGID_4_)" fill="#905539" points="294.113,190.283 312.148,190.283 298.123,195.875 292.968,191.728 	"/>
	<polygon clip-path="url(#SVGID_4_)" fill="#1A1328" points="438.926,495.094 443.17,433.271 444.025,432.602 440.547,493.316 	"/>
	<polygon clip-path="url(#SVGID_4_)" fill="#9DB1DA" points="421.492,417.63 443.17,433.271 444.025,432.602 421.718,417.21 	"/>
	<polygon clip-path="url(#SVGID_4_)" fill="#2B2139" points="429.904,503.334 430.656,503.334 501.154,464.766 	"/>
	<polygon clip-path="url(#SVGID_4_)" fill="#2B2139" points="440.547,493.316 506.664,433.211 438.926,495.094 	"/>
	<polyline clip-path="url(#SVGID_4_)" fill="#FFFFFF" points="315.824,813.383 316.209,813.408 315.557,816.389 315.281,816.365 
		315.467,814.348 	"/>
	<polygon clip-path="url(#SVGID_4_)" fill="#FFFFFF" points="316.481,813.445 316.207,813.408 315.854,814.15 316.051,814.646 
		316.592,814.602 	"/>
	<polygon clip-path="url(#SVGID_4_)" fill="#D5998E" points="285.768,105.634 286.566,103.755 299.459,88.729 	"/>
	<polygon clip-path="url(#SVGID_4_)" fill="#D5998E" points="292.613,112.701 292.613,112.97 292.436,113.064 292.105,112.926 
		292.15,112.568 292.329,112.512 	"/>
	<polygon clip-path="url(#SVGID_4_)" fill="#38221D" points="307.808,38.045 316.49,51.192 302.346,36.358 303.711,34.505 	"/>
	<polygon clip-path="url(#SVGID_4_)" fill="#F9FAE7" points="102.451,678.143 159.551,625.549 131.001,698.178 	"/>
	<polygon clip-path="url(#SVGID_4_)" fill="#7F3F2D" points="104.956,777.318 105.457,780.324 108.661,766.053 108.134,765.381 	"/>
	<polygon clip-path="url(#SVGID_4_)" fill="#873B33" points="109.673,767.34 112.469,770.896 109.374,769.291 	"/>
</g>
</svg>
