<?xml version="1.0" encoding="utf-8"?>
<!-- Generator: Adobe Illustrator 16.0.0, SVG Export Plug-In . SVG Version: 6.00 Build 0)  -->
<!DOCTYPE svg PUBLIC "-//W3C//DTD SVG 1.1//EN" "http://www.w3.org/Graphics/SVG/1.1/DTD/svg11.dtd">
<svg version="1.1" id="Layer_1" xmlns="http://www.w3.org/2000/svg" xmlns:xlink="http://www.w3.org/1999/xlink" x="0px" y="0px"
	 width="141.73px" height="141.73px" viewBox="0 0 141.73 141.73" enable-background="new 0 0 141.73 141.73" xml:space="preserve">
<g>
	<g>
		<path fill="#DD3827" d="M99.145,141.567c-2.399-2.84-5.516-4.822-8.477-6.967c-2.372-1.72-4.871-3.314-7.471-4.654
			c-2.64-1.358-5.417-2.509-8.238-3.43c-2.136-0.697-4.403-1.097-6.716-0.933c-1.463,0.103-2.945-0.011-4.401,0.133
			c-2.863,0.279-5.607,1.093-8.258,2.188c-2.877,1.188-5.807,2.215-8.874,2.751c-3.175,0.552-6.291,0.046-9.055-1.542
			c-2.413-1.387-4.593-3.179-6.867-4.804c-0.166-0.118-0.253-0.344-0.474-0.655c1.058,0.237,1.972,0.452,2.89,0.646
			c2.546,0.536,5.092,0.533,7.58-0.249c2.45-0.769,4.487-2.231,6.058-4.246c1.48-1.896,2.668-3.979,3.08-6.399
			c0.304-1.787,0.636-3.578,0.758-5.38c0.075-1.126-0.215-2.278-0.346-3.418c-0.013-0.107-0.081-0.211-0.087-0.318
			c-0.24-3.72-1.71-7.088-3.288-10.352c-1.453-3.004-3.366-5.789-5.875-8.07c-2.259-2.052-4.702-3.816-7.808-4.363
			c-1.988-0.353-3.984-0.44-5.964,0.024c-1.556,0.366-3.083,0.886-4.267,1.999c-1.337,1.257-2.736,2.502-3.808,3.971
			c-1.585,2.169-2.694,4.636-3.488,7.216c-0.399,1.299-0.694,2.631-1.045,3.98c-1.325-3.009-2.196-6.076-2.517-9.289
			c0.003-1.507,0.006-3.016,0.008-4.523c0.205-2.217,0.933-4.273,1.963-6.224c1.782-3.372,4.687-5.485,8.062-7.032
			c2.497-1.143,5.12-1.809,7.836-2.265c1.768-0.297,3.527-0.944,5.151-1.722c2.278-1.089,4.461-2.394,6.62-3.713
			c0.918-0.561,1.701-1.359,2.492-2.106c1.63-1.537,3.281-3.056,4.814-4.686c0.999-1.063,1.79-2.317,2.702-3.462
			c2.26-2.836,4.087-5.942,5.74-9.156c0.779-1.515,1.648-2.991,2.291-4.56c1.121-2.739,2.162-5.513,3.117-8.313
			c0.727-2.132,1.379-4.303,1.858-6.5c0.525-2.412,0.812-4.875,1.205-7.314c0.067-0.415,0.189-0.828,0.198-1.243
			c0.011-0.511-0.076-1.024-0.107-1.537c-0.017-0.274-0.004-0.548,0.111-0.833c0.83,2.512,2.728,4.635,2.683,7.394
			c-0.028,1.848-0.246,3.699-0.48,5.536c-0.166,1.299-0.458,2.588-0.771,3.863c-0.344,1.396-0.74,2.78-1.175,4.149
			c-1.068,3.365-2.135,6.732-3.277,10.074c-0.77,2.253-1.683,4.457-2.505,6.693c-1.064,2.894-2.212,5.763-3.117,8.708
			c-0.983,3.198-1.653,6.478-1.979,9.826c-0.411,4.229-0.431,8.443,0.246,12.639c0.526,3.267,1.689,6.327,3.171,9.285
			c1.209,2.411,2.636,4.671,4.384,6.715c1.612,1.888,3.175,3.841,4.976,5.536c1.961,1.847,4.182,3.418,6.27,5.131
			c1.39,1.14,2.727,2.34,4.117,3.477c2.908,2.377,5.899,4.656,8.731,7.118c2.011,1.747,4.009,3.574,5.656,5.648
			c1.458,1.831,2.86,3.757,3.823,5.981c0.772,1.782,1.602,3.539,1.982,5.435c0.271,1.349,0.232,2.76,0.328,4.143H99.145z"/>
		<path fill="#3088C4" d="M103.848,0.787c0.552,0.189,0.931,0.267,1.259,0.441c1.538,0.812,3.081,1.622,4.584,2.495
			c0.642,0.372,1.209,0.876,1.779,1.356c1.007,0.846,2.053,1.657,2.97,2.593c1.416,1.447,2.677,3.023,3.664,4.817
			c0.865,1.573,1.385,3.236,1.845,4.967c1.015,3.812,0.574,7.502-0.527,11.186c-0.297,0.985-0.537,1.997-0.951,2.931
			c-0.509,1.144-1.168,2.22-1.776,3.318c-0.408,0.742-0.776,1.519-1.282,2.192c-0.606,0.806-1.116,1.67-1.866,2.396
			c-1.213,1.173-2.193,2.582-3.375,3.792c-1.021,1.05-2.168,1.984-3.286,2.938c-1.218,1.034-2.41,2.111-3.712,3.026
			c-2.085,1.466-4.213,2.883-6.401,4.186c-1.475,0.875-3.136,1.436-4.63,2.282c-1.753,0.992-3.471,2.066-5.104,3.243
			c-1.589,1.147-3.132,2.383-4.545,3.733c-1.646,1.57-3.077,3.348-4.132,5.392c-0.692,1.342-1.488,2.641-2.054,4.033
			c-0.625,1.54-1.016,3.161-1.378,4.805c-0.604,2.726-0.872,5.451-0.714,8.204c0.145,2.494,0.404,4.998,0.849,7.455
			c0.443,2.44,1.117,4.845,1.81,7.229c0.374,1.28,1.017,2.479,1.5,3.729c0.105,0.276,0.053,0.611,0.073,0.921
			c-0.332-0.099-0.718-0.123-0.992-0.308c-1.152-0.769-2.305-1.544-3.393-2.399c-0.61-0.479-1.131-1.091-1.634-1.691
			c-1.854-2.225-3.662-4.485-5.01-7.068c-0.475-0.912-0.882-1.86-1.321-2.792c-0.52-1.106-1.089-2.193-1.546-3.324
			c-0.417-1.034-0.781-2.1-1.051-3.18c-0.514-2.059-0.988-4.129-1.393-6.212c-0.295-1.515-0.484-3.054-0.663-4.59
			c-0.14-1.199-0.223-2.407-0.279-3.614c-0.15-3.221,0.134-6.403,0.765-9.573c0.674-3.391,1.608-6.674,3.48-9.61
			c0.883-1.383,1.884-2.696,2.896-3.991c1.348-1.726,3.169-2.94,4.996-4.045c1.481-0.895,3.182-1.46,4.834-2.027
			c1.505-0.515,3.098-0.765,4.607-1.262c1.452-0.477,2.845-1.131,4.269-1.692c1.053-0.415,2.152-0.738,3.17-1.227
			c1.277-0.613,2.494-1.357,3.743-2.036c0.548-0.297,1.1-0.586,1.659-0.858c3.053-1.476,5.594-3.652,8.029-5.947
			c1.667-1.572,3.063-3.384,4.146-5.424c0.697-1.316,1.05-2.73,1.478-4.146c0.558-1.843,0.558-3.658,0.311-5.467
			c-0.197-1.442-0.672-2.875-1.213-4.237c-0.965-2.438-2.315-4.657-4.27-6.461C104.013,1.212,103.997,1.117,103.848,0.787"/>
		<path fill="#38A74A" d="M112.144,67.997c-0.422,0.291-0.706,0.443-0.94,0.655c-1.252,1.135-2.873,1.249-4.403,1.609
			c-1.573,0.372-3.198,0.563-4.727,1.067c-1.65,0.545-3.19,1.383-4.488,2.603c-3.096,2.905-5.021,6.53-6.504,10.436
			c-0.148,0.392-0.317,0.774-0.521,1.267c-0.834-1.099-1.461-2.19-1.613-3.499c-0.319-2.795,0.615-5.284,1.959-7.653
			c1.588-2.804,3.878-4.97,6.486-6.791c2.58-1.8,5.497-2.83,8.534-3.623c1.307-0.34,2.525-1.096,3.718-1.78
			c0.829-0.476,1.622-1.073,2.294-1.751c1.59-1.602,2.7-3.533,3.438-5.661c0.126-0.366,0.017-0.814,0.017-1.416
			c-1.403,0.647-2.678,1.257-3.969,1.83c-1.728,0.766-3.456,1.53-5.205,2.243c-2.492,1.015-4.781,2.355-6.923,3.986
			c-1.488,1.133-2.808,2.395-3.823,3.965c-0.072,0.111-0.182,0.199-0.44,0.475c0.456-2.323,0.559-4.484,1.525-6.458
			c1.385-2.817,3.578-4.838,6.292-6.322c2.146-1.174,4.356-2.235,6.487-3.433c2.811-1.579,5.031-3.858,6.872-6.446
			c1.475-2.075,2.766-4.3,3.958-6.553c1.727-3.257,2.968-6.716,3.802-10.315c0.308-1.328,0.665-2.644,0.974-3.971
			c0.116-0.499,0.337-0.518,0.702-0.259c0.3,0.21,0.585,0.461,0.915,0.602c0.635,0.268,0.714,0.755,0.582,1.315
			c-0.383,1.651-0.805,3.292-1.188,4.944c-0.627,2.706-1.222,5.42-1.845,8.127c-0.793,3.446-1.59,6.893-2.41,10.333
			c-0.748,3.145-1.552,6.276-2.296,9.422c-1.152,4.866-2.282,9.738-3.411,14.609c-1.081,4.664-2.153,9.331-3.223,13.997
			c-0.854,3.712-1.704,7.424-2.539,11.14c-0.067,0.293-0.009,0.614-0.009,0.739c1.968,0.62,3.906,1.115,5.753,1.841
			c2.783,1.092,5.284,2.681,7.263,4.964c1.294,1.493,2.396,3.118,2.974,5.05c0.596,1.99,0.1,3.721-1.191,5.272
			c-1.201,1.446-2.771,2.052-4.626,2.264c-4.342,0.495-7.433-1.448-9.886-4.787c-2.15-2.929-3.162-6.286-3.727-9.813
			c-0.234-1.462-0.632-2.924-0.639-4.387c-0.007-1.664,0.282-3.339,0.545-4.991c0.377-2.36,0.794-4.717,1.289-7.056
			c0.326-1.547,0.799-3.063,1.234-4.586c0.722-2.506,1.494-4.999,2.19-7.512c0.372-1.34,0.67-2.701,0.919-4.069
			C112.402,69.177,112.229,68.687,112.144,67.997"/>
		<path fill="#E47327" d="M93.797,59.467c-0.606,0.758-1.267,1.48-1.808,2.284c-1.563,2.32-2.952,4.743-3.877,7.398
			c-1.442,4.144-1.657,8.405-1.206,12.737c0.245,2.372,0.82,4.667,1.722,6.852c0.795,1.923,1.783,3.771,2.793,5.596
			c0.317,0.574,0.976,0.962,1.562,1.381c-0.472-4.465,0.375-8.575,2.948-12.178c2.532-3.546,5.961-5.936,10.333-7.184
			c-1.013,2.068-2.004,3.948-2.854,5.89c-0.458,1.047-0.713,2.187-0.993,3.302c-0.591,2.368-1.356,4.719-1.654,7.126
			c-0.455,3.689-0.718,7.417-0.145,11.139c0.234,1.524,0.289,3.087,0.642,4.578c0.63,2.671,1.385,5.312,2.154,7.944
			c1.019,3.472,2.771,6.62,4.445,9.799c0.133,0.253,0.232,0.524,0.348,0.786c-0.055,0.044-0.109,0.09-0.166,0.133
			c-0.949-0.579-1.924-1.126-2.847-1.748c-2.141-1.442-4.292-2.873-6.366-4.41c-1.376-1.02-2.648-2.191-3.928-3.337
			c-1.537-1.373-3.097-2.729-4.53-4.205c-1.313-1.352-2.567-2.783-3.672-4.305c-1.455-2.001-2.808-4.084-4.072-6.21
			c-0.883-1.483-1.744-3.035-2.252-4.67c-0.678-2.178-1.04-4.46-1.464-6.709c-0.187-0.99-0.224-2.013-0.267-3.023
			c-0.126-2.86,0.31-5.675,1.039-8.416c0.42-1.576,1.19-3.065,1.884-4.554c0.762-1.63,1.494-3.296,2.465-4.8
			c1.261-1.957,2.713-3.792,4.14-5.639c0.781-1.014,1.633-1.981,2.525-2.898c0.942-0.97,1.974-1.855,2.969-2.777
			C93.71,59.389,93.751,59.427,93.797,59.467"/>
		<path fill="#F8EA1F" d="M103.064,21.181c-1.206,1.135-2.302,2.421-3.644,3.362c-1.674,1.173-3.492,2.179-5.349,3.037
			c-1.617,0.747-3.356,1.247-5.074,1.745c-1.456,0.421-2.972,0.621-4.431,1.032c-2.692,0.758-5.433,1.429-8.02,2.462
			c-2.018,0.804-3.972,1.913-5.353,3.735c-0.074,0.099-0.201,0.158-0.521,0.399c0.184-0.677,0.313-1.113,0.419-1.553
			c0.436-1.792,0.936-3.571,1.273-5.38c0.352-1.875,0.551-3.778,0.802-5.671c0.089-0.669,0.191-1.344,0.187-2.015
			c-0.016-2.706-0.204-5.399-1.243-7.936c-0.377-0.921-0.946-1.761-1.427-2.638c0.958-0.513,5.787,1.791,7.745,4.736
			c1.913,2.872,2.086,6.062,1.779,9.46c0.499-0.267,0.942-0.488,1.37-0.734c1.967-1.138,4.095-1.628,6.356-1.692
			c2.446-0.071,4.897-0.155,7.333-0.383c1.267-0.121,2.513-0.536,3.753-0.869c1.329-0.358,2.642-0.776,3.962-1.167
			C103.012,21.133,103.04,21.157,103.064,21.181"/>
	</g>
	<path fill="#DD3827" d="M26.332,52.013c0.048-4.414,4.018-8.775,9.253-8.396c4.294,0.31,8.338,3.787,8.1,9.126
		c-0.213,4.781-4.294,8.333-8.862,8.237C30.375,60.887,26.407,57.5,26.332,52.013"/>
</g>
</svg>
