<?xml version="1.0" encoding="utf-8"?>
<!-- Generator: Adobe Illustrator 16.0.0, SVG Export Plug-In . SVG Version: 6.00 Build 0)  -->
<!DOCTYPE svg PUBLIC "-//W3C//DTD SVG 1.1//EN" "http://www.w3.org/Graphics/SVG/1.1/DTD/svg11.dtd">
<svg version="1.1" xmlns="http://www.w3.org/2000/svg" xmlns:xlink="http://www.w3.org/1999/xlink" x="0px" y="0px"
	 width="4764.639px" height="3061.42px" viewBox="0 0 4764.639 3061.42" enable-background="new 0 0 4764.639 3061.42"
	 xml:space="preserve">
<g id="Layer_2">
	<rect fill="#141A21" width="4764.639" height="3061.42"/>
</g>
<g id="Layer_1">
	<g opacity="0.5">
		<g>
			<rect y="2.5" fill="#FFFFFF" width="4763.414" height="3061.204"/>
			<polygon fill="#BCBEC0" points="0,3063.704 0,2625.372 465.17,3063.704 			"/>
			<polygon fill="#6D6E71" points="0,2625.372 435.176,2278.46 0,1973.574 			"/>
			<polygon fill="#808285" points="435.176,2278.46 1191.024,3063.704 0,2625.372 			"/>
			<polygon fill="#939598" points="435.176,2278.46 1251.013,2415.813 1191.024,3063.704 			"/>
			<polygon fill="#939598" points="435.176,2278.46 345.194,1634.466 0,1973.574 			"/>
			<polygon fill="#A7A9AC" points="345.194,1634.466 1251.013,2415.813 435.176,2278.46 			"/>
			<polygon fill="#939598" points="0,2625.372 465.17,3063.704 1191.024,3063.704 			"/>
			<polygon fill="#BCBEC0" points="345.194,1634.466 0,1264.493 0,1973.574 			"/>
			<polygon fill="#6D6E71" points="0,1264.493 663.13,1170.835 345.194,1634.466 			"/>
			<polygon fill="#808285" points="663.13,1170.835 897.084,1712.382 345.194,1634.466 			"/>
			<polygon fill="#A7A9AC" points="663.13,1170.835 1137.035,1204.43 897.084,1712.382 			"/>
			<polygon fill="#808285" points="663.13,1170.835 0,891.601 0,1264.493 			"/>
			<polygon fill="#939598" points="0,891.601 869.211,819.023 663.13,1170.835 			"/>
			<polygon fill="#D1D3D4" points="869.211,819.023 1137.035,1204.43 663.13,1170.835 			"/>
			<polygon fill="#939598" points="897.084,1712.382 1251.013,2415.813 345.194,1634.466 			"/>
			<polygon fill="#A7A9AC" points="0,891.601 245.148,2.5 0,2.5 			"/>
			<polygon fill="#D1D3D4" points="869.211,819.023 91.776,558.749 713.195,2.5 			"/>
			<polygon fill="#808285" points="245.148,2.5 713.195,2.5 91.776,558.749 			"/>
			<polygon fill="#808285" points="91.776,558.749 0,891.601 869.211,819.023 			"/>
			<polygon fill="#939598" points="91.776,558.749 0,2.5 0,891.601 			"/>
			<polygon fill="#D1D3D4" points="897.084,1712.382 1433.268,2031.552 1137.035,1204.43 			"/>
			<polygon fill="#A7A9AC" points="897.084,1712.382 1251.013,2415.813 1433.268,2031.552 			"/>
			<polygon fill="#939598" points="1251.013,2415.813 1985.459,2323.635 1433.268,2031.552 			"/>
			<polygon fill="#808285" points="1251.013,2415.813 1637.288,3063.704 1985.459,2323.635 			"/>
			<polygon fill="#D1D3D4" points="1251.013,2415.813 1191.024,3063.704 1637.288,3063.704 			"/>
			<polygon fill="#A7A9AC" points="1433.268,2031.552 2036.328,1860.064 1985.459,2323.635 			"/>
			<polygon fill="#E6E7E8" points="1985.459,2323.635 2399.364,2233.85 2036.328,1860.064 			"/>
			<polygon fill="#939598" points="1985.459,2323.635 2114.336,2814.465 1637.288,3063.704 			"/>
			<polygon fill="#A7A9AC" points="1985.459,2323.635 2399.364,2233.85 2114.336,2814.465 			"/>
			<polygon fill="#808285" points="1137.035,1204.43 1618.236,1292.855 1433.268,2031.552 			"/>
			<polygon fill="#939598" points="1618.236,1292.855 2036.328,1860.064 1433.268,2031.552 			"/>
			<polygon fill="#BCBEC0" points="869.211,819.023 1433.268,780.649 1137.035,1204.43 			"/>
			<polygon fill="#808285" points="1433.268,780.649 783.549,370.703 869.211,819.023 			"/>
			<polygon fill="#939598" points="1618.236,1292.855 1433.268,780.649 1137.035,1204.43 			"/>
			<polygon fill="#D1D3D4" points="1433.268,780.649 2069.331,1292.855 1618.236,1292.855 			"/>
			<polygon fill="#BCBEC0" points="1618.236,1292.855 2036.328,1860.064 2069.331,1292.855 			"/>
			<polygon fill="#BCBEC0" points="783.549,370.703 1235.248,2.5 1433.268,780.649 			"/>
			<polygon fill="#F1F2F2" points="713.195,2.5 1235.248,2.5 783.549,370.703 			"/>
			<polygon fill="#808285" points="2114.336,2814.465 2399.364,3060.36 1637.288,3063.704 			"/>
			<polygon fill="#58595B" points="2114.336,2814.465 2630.387,2585.885 2408.365,3063.704 			"/>
			<polygon fill="#6D6E71" points="2630.387,2585.885 2399.364,2233.85 2114.336,2814.465 			"/>
			<polygon fill="#808285" points="2630.387,2585.885 2975.422,3063.704 2408.365,3063.704 			"/>
			<polygon fill="#808285" points="2630.387,2585.885 2954.42,2278.46 2399.364,2233.85 			"/>
			<polygon fill="#A7A9AC" points="2954.42,2278.46 3155.439,2696.001 2630.387,2585.885 			"/>
			<polygon fill="#939598" points="3155.439,2696.001 2975.422,3063.704 2630.387,2585.885 			"/>
			<polygon fill="#808285" points="2036.328,1860.064 2582.383,1556.467 2399.364,2233.85 			"/>
			<polygon fill="#A7A9AC" points="3215.445,1739.994 2954.42,2278.46 2399.364,2233.85 			"/>
			<polygon fill="#939598" points="2069.331,1292.855 2582.383,1556.467 2036.328,1860.064 			"/>
			<polygon fill="#A7A9AC" points="2069.331,1292.855 3260.45,1305.133 2582.383,1556.467 			"/>
			<polygon fill="#E6E7E8" points="1433.268,780.649 1949.319,531.983 2372.361,916.587 			"/>
			<polygon fill="#808285" points="1433.268,780.649 1460.27,229.788 1949.319,531.983 			"/>
			<polygon fill="#6D6E71" points="1460.27,229.788 1235.248,2.5 1433.268,780.649 			"/>
			<polygon fill="#BCBEC0" points="1460.27,229.788 2129.337,249.812 1949.319,531.983 			"/>
			<polygon fill="#A7A9AC" points="2129.337,249.812 2372.361,916.587 1949.319,531.983 			"/>
			<polygon fill="#BCBEC0" points="2069.331,1292.855 2372.361,916.587 1433.268,780.649 			"/>
			<polygon fill="#E6E7E8" points="1460.27,229.788 1985.459,2.5 1235.248,2.5 			"/>
			<polygon fill="#BCBEC0" points="1985.459,2.5 2129.337,249.812 2780.402,2.5 			"/>
			<polygon fill="#E6E7E8" points="2372.361,916.587 2069.331,1292.855 2794.484,1300.33 			"/>
			<polygon fill="#939598" points="2372.361,916.587 2862.504,535.173 2129.337,249.812 			"/>
			<polygon fill="#BCBEC0" points="2780.402,2.5 2862.504,535.173 2129.337,249.812 			"/>
			<polygon fill="#E6E7E8" points="2780.402,2.5 3260.45,548.597 2862.504,535.173 			"/>
			<polygon fill="#808285" points="2372.361,916.587 2996.504,1027.575 2862.504,535.173 			"/>
			<polygon fill="#BCBEC0" points="2862.504,535.173 3260.45,548.597 2996.504,1027.575 			"/>
			<polygon fill="#E6E7E8" points="2996.504,1027.575 3260.45,1305.133 2794.484,1300.33 			"/>
			<polygon fill="#A7A9AC" points="2372.361,916.587 2996.504,1027.575 2794.484,1300.33 			"/>
			<polygon fill="#6D6E71" points="3260.45,548.597 3390.504,2.5 2780.402,2.5 			"/>
			<polygon fill="#A7A9AC" points="3260.45,548.597 3648.639,1219.444 2996.504,1027.575 			"/>
			<polygon fill="#D1D3D4" points="3260.45,1305.133 3648.639,1219.444 2996.504,1027.575 			"/>
			<polygon fill="#BCBEC0" points="3648.639,1219.444 3588.643,1741.71 3260.45,1305.133 			"/>
			<polygon fill="#A7A9AC" points="3588.643,1741.71 3215.445,1739.994 3260.45,1305.133 			"/>
			<polygon fill="#939598" points="3588.643,1741.71 3322.572,2216.468 3215.445,1739.994 			"/>
			<polygon fill="#D1D3D4" points="2954.42,2278.46 3322.572,2216.468 3215.445,1739.994 			"/>
			<polygon fill="#D1D3D4" points="2582.383,1556.467 2794.484,1300.33 3260.45,1305.133 			"/>
			<polygon fill="#BCBEC0" points="3155.439,2696.001 3322.572,2216.468 2954.42,2278.46 			"/>
			<polyline fill="#808285" points="3389.303,7.545 3648.639,1219.444 3260.45,548.597 3389.303,7.545 			"/>
			<polygon fill="#BCBEC0" points="3155.439,2696.001 3260.45,3064.3 2975.422,3063.704 			"/>
			<polygon fill="#A7A9AC" points="3260.45,3064.3 3322.572,2216.468 3155.439,2696.001 			"/>
			<polygon fill="#939598" points="1460.27,229.788 1985.459,2.5 2129.337,249.812 			"/>
			<polygon fill="#D1D3D4" points="2399.364,2233.85 2582.383,1556.467 3215.445,1739.994 			"/>
			<polygon fill="#939598" points="2582.383,1556.467 3260.45,1305.133 3215.445,1739.994 			"/>
			<polyline fill="#A7A9AC" points="3390.504,7.545 4038.504,613.494 3648.639,1219.444 3386.504,0.958 			"/>
			<polygon fill="#939598" points="3386.504,7.545 4518.504,7.545 4038.504,613.494 			"/>
			<polygon fill="#808285" points="4038.504,613.494 4763.414,992.54 4518.504,5.408 			"/>
			<polyline fill="#BCBEC0" points="4518.504,0.958 4763.414,2.5 4763.414,992.54 4518.504,5.408 			"/>
			<polygon fill="#939598" points="3648.639,1219.444 4170.504,1712.382 4038.504,613.494 			"/>
			<polygon fill="#BCBEC0" points="4170.504,1712.382 4763.414,992.54 4038.504,613.494 			"/>
			<polygon fill="#D1D3D4" points="3588.643,1741.71 4170.504,1712.382 3648.639,1219.444 			"/>
			<polygon fill="#A7A9AC" points="4170.504,1712.382 3909.572,2363.574 3588.643,1741.71 			"/>
			<polygon fill="#808285" points="3588.643,1741.71 3909.572,2363.574 3322.572,2216.468 			"/>
			<polygon fill="#808285" points="4170.504,1712.382 4763.414,2009.229 4763.414,992.54 			"/>
			<polygon fill="#E6E7E8" points="4170.504,1712.382 4274.504,2585.885 4763.414,2009.229 			"/>
			<polygon fill="#A7A9AC" points="4274.504,2585.885 4763.414,3063.704 4763.414,2009.229 			"/>
			<polygon fill="#939598" points="4274.504,2585.885 3909.572,2363.574 4170.504,1712.382 			"/>
			<polygon fill="#D1D3D4" points="3322.572,2216.468 3648.639,2693.671 3260.45,3064.3 			"/>
			<polygon fill="#939598" points="3648.639,2693.671 3909.572,2363.574 3952.504,3063.704 			"/>
			<polygon fill="#D1D3D4" points="4274.504,2585.885 3952.504,3063.704 3909.572,2363.574 			"/>
			<polygon fill="#808285" points="4274.504,2585.885 4763.414,3063.704 3952.504,3063.704 			"/>
			<polygon fill="#A7A9AC" points="3648.639,2693.671 3260.45,3064.3 3952.504,3063.704 			"/>
			<polygon fill="#6D6E71" points="3322.572,2216.468 3648.639,2693.671 3909.572,2363.574 			"/>
		</g>
		<rect x="1.223" y="2.5" opacity="0.6" fill="#2C317D" enable-background="new    " width="4763.416" height="3061.204"/>
		
			<radialGradient id="SVGID_1_" cx="2731.832" cy="1305.2446" r="2002.3517" gradientTransform="matrix(1 0 0 -1 -350.125 2833.9551)" gradientUnits="userSpaceOnUse">
			<stop  offset="0" style="stop-color:#808285"/>
			<stop  offset="1" style="stop-color:#000000"/>
		</radialGradient>
		
			<rect x="0.001" y="-3.054" opacity="0.7" fill="url(#SVGID_1_)" enable-background="new    " width="4763.412" height="3063.529"/>
	</g>
</g>
</svg>
